<svg width="343" height="316" viewBox="0 0 343 316" fill="none" xmlns="http://www.w3.org/2000/svg">
<path d="M189.375 290.375L130.375 236.875L61.875 314.875L189.375 290.375Z" fill="#2A2927"/>
<path d="M130.354 236.501C130.454 236.495 130.553 236.53 130.627 236.598L189.627 290.098C189.732 290.193 189.775 290.34 189.736 290.477C189.698 290.613 189.585 290.716 189.445 290.743L61.9453 315.243C61.7882 315.273 61.6294 315.2 61.5498 315.062C61.4703 314.923 61.4874 314.748 61.5928 314.628L130.093 236.628C130.159 236.553 130.253 236.507 130.354 236.501ZM62.8779 314.3L188.567 290.148L130.405 237.408L62.8779 314.3Z" fill="black"/>
<path d="M303.375 74.875H300.875L289.875 109.375L341.875 108.375L303.375 74.875Z" fill="#0FAA76" stroke="black" stroke-width="0.75"/>
<path d="M303.375 75.375L271.875 197.875L200.375 112.375L252.875 62.375L303.375 75.375Z" fill="#2A2927"/>
<path d="M303.5 74.8907L303.983 75.0157L303.859 75.5L272.116 198.943L199.69 112.336L252.731 61.8213L303.5 74.8907ZM201.059 112.413L271.633 196.806L302.766 75.7344L253.019 62.9278L201.059 112.413Z" fill="black"/>
<path d="M270.375 200.875L187.375 290.375L124.875 235.875L0.375 0.375031L156.375 61.875C194.042 104.542 269.775 190.375 271.375 192.375C272.975 194.375 271.375 198.875 270.375 200.875Z" fill="#0FAA76" stroke="black" stroke-width="0.75" stroke-linejoin="round"/>
<path d="M125.375 235.375L264.875 196.875L155.375 75.875L125.375 235.375Z" fill="#2A2927"/>
<path d="M155.273 75.5137C155.41 75.4752 155.558 75.5176 155.653 75.6231L265.153 196.623C265.241 196.719 265.272 196.855 265.235 196.98C265.199 197.104 265.1 197.202 264.975 197.236L125.475 235.736C125.35 235.771 125.216 235.739 125.121 235.651C125.026 235.564 124.983 235.433 125.007 235.306L155.007 75.8057L155.04 75.7061C155.087 75.6136 155.171 75.5426 155.273 75.5137ZM125.854 234.854L264.188 196.675L155.603 76.6865L125.854 234.854Z" fill="black"/>
</svg>
